<svg width="192" height="68" viewBox="0 0 192 68" fill="none" xmlns="http://www.w3.org/2000/svg">
<rect width="192" height="68" rx="10" fill="#EDE5CE"/>
<g clip-path="url(#clip0_42_374)">
<path d="M40.6667 30.6667H17.3333" stroke="black" stroke-width="3.25" stroke-linecap="round" stroke-linejoin="round"/>
<path d="M17.3333 24H40.6667" stroke="black" stroke-width="3.25" stroke-linecap="round" stroke-linejoin="round"/>
<path d="M32.3333 37.3333H17.3333" stroke="black" stroke-width="3.25" stroke-linecap="round" stroke-linejoin="round"/>
<path d="M17.3333 44H27.3333" stroke="black" stroke-width="3.25" stroke-linecap="round" stroke-linejoin="round"/>
<path d="M39 39V49" stroke="#E38484" stroke-width="3.25" stroke-linecap="round" stroke-linejoin="round"/>
</g>
<path d="M69.875 40.65C69.575 40.85 69.1667 41.075 68.65 41.325C68.1333 41.575 67.525 41.7833 66.825 41.95C66.1417 42.1167 65.3917 42.2 64.575 42.2C63.175 42.1833 61.9083 41.9333 60.775 41.45C59.6583 40.9667 58.7083 40.3083 57.925 39.475C57.1417 38.6417 56.5333 37.6833 56.1 36.6C55.6833 35.5 55.475 34.3333 55.475 33.1C55.475 31.75 55.6917 30.5083 56.125 29.375C56.575 28.225 57.2 27.2333 58 26.4C58.8 25.55 59.7417 24.8917 60.825 24.425C61.925 23.9583 63.125 23.725 64.425 23.725C65.5083 23.725 66.4917 23.875 67.375 24.175C68.2583 24.4583 69.0167 24.8 69.65 25.2L68.675 27.45C68.175 27.1167 67.5667 26.8 66.85 26.5C66.15 26.2 65.3667 26.05 64.5 26.05C63.6167 26.05 62.7833 26.225 62 26.575C61.2167 26.925 60.525 27.4167 59.925 28.05C59.325 28.6833 58.85 29.425 58.5 30.275C58.1667 31.1083 58 32.0083 58 32.975C58 33.9583 58.15 34.875 58.45 35.725C58.7667 36.5583 59.2083 37.2833 59.775 37.9C60.3583 38.5167 61.0583 39 61.875 39.35C62.6917 39.7 63.6083 39.875 64.625 39.875C65.5417 39.875 66.3583 39.7333 67.075 39.45C67.7917 39.1667 68.3833 38.85 68.85 38.5L69.875 40.65ZM77.6834 42.25C76.7167 42.25 75.8334 42.0417 75.0334 41.625C74.2501 41.2083 73.6251 40.6 73.1584 39.8C72.7084 38.9833 72.4834 37.9917 72.4834 36.825C72.4834 35.675 72.7251 34.6833 73.2084 33.85C73.6917 33 74.3334 32.35 75.1334 31.9C75.9501 31.45 76.8417 31.225 77.8084 31.225C78.7751 31.225 79.5917 31.45 80.2584 31.9C80.9251 32.3333 81.4334 32.85 81.7834 33.45L81.6334 33.85L81.8584 31.65H84.0084V42H81.6834V39.3L81.9334 39.9C81.8667 40.0667 81.7167 40.2833 81.4834 40.55C81.2667 40.8 80.9667 41.0583 80.5834 41.325C80.2167 41.5917 79.7917 41.8167 79.3084 42C78.8251 42.1667 78.2834 42.25 77.6834 42.25ZM78.3084 40.325C78.8917 40.325 79.4167 40.2167 79.8834 40C80.3501 39.7833 80.7334 39.4833 81.0334 39.1C81.3501 38.7 81.5667 38.225 81.6834 37.675V35.65C81.5501 35.15 81.3167 34.7167 80.9834 34.35C80.6501 33.9667 80.2501 33.675 79.7834 33.475C79.3167 33.2583 78.8001 33.15 78.2334 33.15C77.6167 33.15 77.0501 33.3 76.5334 33.6C76.0167 33.9 75.6001 34.3167 75.2834 34.85C74.9834 35.3833 74.8334 36.0083 74.8334 36.725C74.8334 37.3917 74.9917 38 75.3084 38.55C75.6251 39.1 76.0501 39.5333 76.5834 39.85C77.1167 40.1667 77.6917 40.325 78.3084 40.325ZM90.1068 31.65L90.3068 34.175L90.2068 33.775C90.5402 33.0083 91.0818 32.4 91.8318 31.95C92.5818 31.4833 93.4485 31.25 94.4318 31.25C95.4152 31.25 96.2152 31.5417 96.8318 32.125C97.4652 32.6917 97.7902 33.4333 97.8068 34.35V42H95.4568V35.175C95.4402 34.6083 95.2735 34.15 94.9568 33.8C94.6568 33.4333 94.1818 33.25 93.5318 33.25C92.9318 33.25 92.3902 33.4167 91.9068 33.75C91.4235 34.0833 91.0402 34.5417 90.7568 35.125C90.4902 35.7083 90.3568 36.3833 90.3568 37.15V42H88.0318V31.65H90.1068ZM105.684 42.3L99.934 31.65H102.684L106.584 39.875L105.159 39.825L108.734 31.65H111.334L105.809 42.3H105.684ZM114.713 46.975L121.538 31.65H123.688L117.013 46.975H114.713ZM117.263 42.075L112.288 31.65H114.913L119.088 40.9L117.263 42.075ZM126.766 42V23.925H131.691C133.474 23.925 134.991 24.2 136.241 24.75C137.508 25.3 138.524 26.025 139.291 26.925C140.058 27.825 140.616 28.825 140.966 29.925C141.333 31.0083 141.516 32.0917 141.516 33.175C141.516 34.5417 141.274 35.7667 140.791 36.85C140.324 37.9333 139.674 38.8583 138.841 39.625C138.008 40.3917 137.049 40.9833 135.966 41.4C134.899 41.8 133.766 42 132.566 42H126.766ZM129.191 39.675H132.091C133.091 39.675 134.008 39.525 134.841 39.225C135.691 38.925 136.424 38.4917 137.041 37.925C137.674 37.3583 138.166 36.6667 138.516 35.85C138.866 35.0167 139.041 34.075 139.041 33.025C139.041 31.9083 138.858 30.9333 138.491 30.1C138.124 29.25 137.624 28.5417 136.991 27.975C136.358 27.4083 135.641 26.9833 134.841 26.7C134.041 26.4 133.199 26.25 132.316 26.25H129.191V39.675ZM144.114 36.725C144.114 35.6917 144.356 34.7583 144.839 33.925C145.339 33.0917 146.023 32.4333 146.889 31.95C147.756 31.4667 148.739 31.225 149.839 31.225C150.973 31.225 151.964 31.4667 152.814 31.95C153.664 32.4333 154.323 33.0917 154.789 33.925C155.256 34.7583 155.489 35.6917 155.489 36.725C155.489 37.7583 155.256 38.7 154.789 39.55C154.323 40.3833 153.656 41.0417 152.789 41.525C151.939 42.0083 150.948 42.25 149.814 42.25C148.714 42.25 147.731 42.025 146.864 41.575C146.014 41.1083 145.339 40.4667 144.839 39.65C144.356 38.8167 144.114 37.8417 144.114 36.725ZM146.439 36.75C146.439 37.4167 146.589 38.025 146.889 38.575C147.189 39.1083 147.589 39.5333 148.089 39.85C148.606 40.1667 149.173 40.325 149.789 40.325C150.439 40.325 151.014 40.1667 151.514 39.85C152.031 39.5333 152.431 39.1083 152.714 38.575C152.998 38.025 153.139 37.4167 153.139 36.75C153.139 36.0833 152.998 35.4833 152.714 34.95C152.431 34.4 152.031 33.9667 151.514 33.65C151.014 33.3167 150.439 33.15 149.789 33.15C149.156 33.15 148.581 33.3167 148.064 33.65C147.564 33.9833 147.164 34.425 146.864 34.975C146.581 35.5083 146.439 36.1 146.439 36.75ZM167.037 41.05C166.571 41.4167 166.012 41.7083 165.362 41.925C164.712 42.1417 164.062 42.25 163.412 42.25C162.279 42.25 161.287 42.025 160.437 41.575C159.587 41.125 158.921 40.5 158.437 39.7C157.971 38.8833 157.737 37.925 157.737 36.825C157.737 35.725 157.987 34.7667 158.487 33.95C159.004 33.1333 159.671 32.5083 160.487 32.075C161.321 31.625 162.212 31.4 163.162 31.4C163.996 31.4 164.737 31.5167 165.387 31.75C166.054 31.9833 166.621 32.3 167.087 32.7L165.937 34.2C165.637 33.9667 165.271 33.7583 164.837 33.575C164.404 33.3917 163.912 33.3 163.362 33.3C162.762 33.3 162.204 33.4583 161.687 33.775C161.187 34.075 160.787 34.4917 160.487 35.025C160.204 35.5583 160.062 36.1583 160.062 36.825C160.062 37.4583 160.212 38.05 160.512 38.6C160.812 39.1333 161.229 39.5583 161.762 39.875C162.296 40.175 162.904 40.325 163.587 40.325C164.037 40.325 164.446 40.2583 164.812 40.125C165.196 39.9917 165.537 39.8083 165.837 39.575L167.037 41.05ZM172.939 42.2C172.205 42.2 171.489 42.075 170.789 41.825C170.105 41.5583 169.539 41.1667 169.089 40.65L170.064 39.3C170.497 39.7167 170.939 40.0333 171.389 40.25C171.855 40.45 172.314 40.55 172.764 40.55C173.097 40.55 173.405 40.5083 173.689 40.425C173.972 40.3417 174.197 40.2083 174.364 40.025C174.547 39.825 174.639 39.5583 174.639 39.225C174.639 38.8583 174.514 38.5667 174.264 38.35C174.03 38.1333 173.722 37.9583 173.339 37.825C172.972 37.6917 172.58 37.5667 172.164 37.45C171.314 37.1667 170.664 36.775 170.214 36.275C169.764 35.775 169.539 35.1667 169.539 34.45C169.539 33.9 169.672 33.3917 169.939 32.925C170.222 32.4417 170.63 32.05 171.164 31.75C171.714 31.45 172.389 31.3 173.189 31.3C173.905 31.3 174.547 31.3917 175.114 31.575C175.68 31.7417 176.214 32.025 176.714 32.425L175.789 33.875C175.489 33.5583 175.13 33.325 174.714 33.175C174.297 33.025 173.922 32.9417 173.589 32.925C173.305 32.9083 173.03 32.95 172.764 33.05C172.514 33.15 172.305 33.2917 172.139 33.475C171.972 33.6583 171.889 33.875 171.889 34.125C171.889 34.475 172.005 34.7583 172.239 34.975C172.472 35.1917 172.772 35.3667 173.139 35.5C173.522 35.6167 173.897 35.7417 174.264 35.875C174.78 36.025 175.239 36.225 175.639 36.475C176.039 36.725 176.355 37.0333 176.589 37.4C176.839 37.7667 176.964 38.225 176.964 38.775C176.964 39.3917 176.814 39.9667 176.514 40.5C176.23 41.0167 175.789 41.4333 175.189 41.75C174.605 42.05 173.855 42.2 172.939 42.2Z" fill="black"/>
<path d="M69.875 40.65C69.575 40.85 69.1667 41.075 68.65 41.325C68.1333 41.575 67.525 41.7833 66.825 41.95C66.1417 42.1167 65.3917 42.2 64.575 42.2C63.175 42.1833 61.9083 41.9333 60.775 41.45C59.6583 40.9667 58.7083 40.3083 57.925 39.475C57.1417 38.6417 56.5333 37.6833 56.1 36.6C55.6833 35.5 55.475 34.3333 55.475 33.1C55.475 31.75 55.6917 30.5083 56.125 29.375C56.575 28.225 57.2 27.2333 58 26.4C58.8 25.55 59.7417 24.8917 60.825 24.425C61.925 23.9583 63.125 23.725 64.425 23.725C65.5083 23.725 66.4917 23.875 67.375 24.175C68.2583 24.4583 69.0167 24.8 69.65 25.2L68.675 27.45C68.175 27.1167 67.5667 26.8 66.85 26.5C66.15 26.2 65.3667 26.05 64.5 26.05C63.6167 26.05 62.7833 26.225 62 26.575C61.2167 26.925 60.525 27.4167 59.925 28.05C59.325 28.6833 58.85 29.425 58.5 30.275C58.1667 31.1083 58 32.0083 58 32.975C58 33.9583 58.15 34.875 58.45 35.725C58.7667 36.5583 59.2083 37.2833 59.775 37.9C60.3583 38.5167 61.0583 39 61.875 39.35C62.6917 39.7 63.6083 39.875 64.625 39.875C65.5417 39.875 66.3583 39.7333 67.075 39.45C67.7917 39.1667 68.3833 38.85 68.85 38.5L69.875 40.65ZM77.6834 42.25C76.7167 42.25 75.8334 42.0417 75.0334 41.625C74.2501 41.2083 73.6251 40.6 73.1584 39.8C72.7084 38.9833 72.4834 37.9917 72.4834 36.825C72.4834 35.675 72.7251 34.6833 73.2084 33.85C73.6917 33 74.3334 32.35 75.1334 31.9C75.9501 31.45 76.8417 31.225 77.8084 31.225C78.7751 31.225 79.5917 31.45 80.2584 31.9C80.9251 32.3333 81.4334 32.85 81.7834 33.45L81.6334 33.85L81.8584 31.65H84.0084V42H81.6834V39.3L81.9334 39.9C81.8667 40.0667 81.7167 40.2833 81.4834 40.55C81.2667 40.8 80.9667 41.0583 80.5834 41.325C80.2167 41.5917 79.7917 41.8167 79.3084 42C78.8251 42.1667 78.2834 42.25 77.6834 42.25ZM78.3084 40.325C78.8917 40.325 79.4167 40.2167 79.8834 40C80.3501 39.7833 80.7334 39.4833 81.0334 39.1C81.3501 38.7 81.5667 38.225 81.6834 37.675V35.65C81.5501 35.15 81.3167 34.7167 80.9834 34.35C80.6501 33.9667 80.2501 33.675 79.7834 33.475C79.3167 33.2583 78.8001 33.15 78.2334 33.15C77.6167 33.15 77.0501 33.3 76.5334 33.6C76.0167 33.9 75.6001 34.3167 75.2834 34.85C74.9834 35.3833 74.8334 36.0083 74.8334 36.725C74.8334 37.3917 74.9917 38 75.3084 38.55C75.6251 39.1 76.0501 39.5333 76.5834 39.85C77.1167 40.1667 77.6917 40.325 78.3084 40.325ZM90.1068 31.65L90.3068 34.175L90.2068 33.775C90.5402 33.0083 91.0818 32.4 91.8318 31.95C92.5818 31.4833 93.4485 31.25 94.4318 31.25C95.4152 31.25 96.2152 31.5417 96.8318 32.125C97.4652 32.6917 97.7902 33.4333 97.8068 34.35V42H95.4568V35.175C95.4402 34.6083 95.2735 34.15 94.9568 33.8C94.6568 33.4333 94.1818 33.25 93.5318 33.25C92.9318 33.25 92.3902 33.4167 91.9068 33.75C91.4235 34.0833 91.0402 34.5417 90.7568 35.125C90.4902 35.7083 90.3568 36.3833 90.3568 37.15V42H88.0318V31.65H90.1068ZM105.684 42.3L99.934 31.65H102.684L106.584 39.875L105.159 39.825L108.734 31.65H111.334L105.809 42.3H105.684ZM114.713 46.975L121.538 31.65H123.688L117.013 46.975H114.713ZM117.263 42.075L112.288 31.65H114.913L119.088 40.9L117.263 42.075ZM126.766 42V23.925H131.691C133.474 23.925 134.991 24.2 136.241 24.75C137.508 25.3 138.524 26.025 139.291 26.925C140.058 27.825 140.616 28.825 140.966 29.925C141.333 31.0083 141.516 32.0917 141.516 33.175C141.516 34.5417 141.274 35.7667 140.791 36.85C140.324 37.9333 139.674 38.8583 138.841 39.625C138.008 40.3917 137.049 40.9833 135.966 41.4C134.899 41.8 133.766 42 132.566 42H126.766ZM129.191 39.675H132.091C133.091 39.675 134.008 39.525 134.841 39.225C135.691 38.925 136.424 38.4917 137.041 37.925C137.674 37.3583 138.166 36.6667 138.516 35.85C138.866 35.0167 139.041 34.075 139.041 33.025C139.041 31.9083 138.858 30.9333 138.491 30.1C138.124 29.25 137.624 28.5417 136.991 27.975C136.358 27.4083 135.641 26.9833 134.841 26.7C134.041 26.4 133.199 26.25 132.316 26.25H129.191V39.675ZM144.114 36.725C144.114 35.6917 144.356 34.7583 144.839 33.925C145.339 33.0917 146.023 32.4333 146.889 31.95C147.756 31.4667 148.739 31.225 149.839 31.225C150.973 31.225 151.964 31.4667 152.814 31.95C153.664 32.4333 154.323 33.0917 154.789 33.925C155.256 34.7583 155.489 35.6917 155.489 36.725C155.489 37.7583 155.256 38.7 154.789 39.55C154.323 40.3833 153.656 41.0417 152.789 41.525C151.939 42.0083 150.948 42.25 149.814 42.25C148.714 42.25 147.731 42.025 146.864 41.575C146.014 41.1083 145.339 40.4667 144.839 39.65C144.356 38.8167 144.114 37.8417 144.114 36.725ZM146.439 36.75C146.439 37.4167 146.589 38.025 146.889 38.575C147.189 39.1083 147.589 39.5333 148.089 39.85C148.606 40.1667 149.173 40.325 149.789 40.325C150.439 40.325 151.014 40.1667 151.514 39.85C152.031 39.5333 152.431 39.1083 152.714 38.575C152.998 38.025 153.139 37.4167 153.139 36.75C153.139 36.0833 152.998 35.4833 152.714 34.95C152.431 34.4 152.031 33.9667 151.514 33.65C151.014 33.3167 150.439 33.15 149.789 33.15C149.156 33.15 148.581 33.3167 148.064 33.65C147.564 33.9833 147.164 34.425 146.864 34.975C146.581 35.5083 146.439 36.1 146.439 36.75ZM167.037 41.05C166.571 41.4167 166.012 41.7083 165.362 41.925C164.712 42.1417 164.062 42.25 163.412 42.25C162.279 42.25 161.287 42.025 160.437 41.575C159.587 41.125 158.921 40.5 158.437 39.7C157.971 38.8833 157.737 37.925 157.737 36.825C157.737 35.725 157.987 34.7667 158.487 33.95C159.004 33.1333 159.671 32.5083 160.487 32.075C161.321 31.625 162.212 31.4 163.162 31.4C163.996 31.4 164.737 31.5167 165.387 31.75C166.054 31.9833 166.621 32.3 167.087 32.7L165.937 34.2C165.637 33.9667 165.271 33.7583 164.837 33.575C164.404 33.3917 163.912 33.3 163.362 33.3C162.762 33.3 162.204 33.4583 161.687 33.775C161.187 34.075 160.787 34.4917 160.487 35.025C160.204 35.5583 160.062 36.1583 160.062 36.825C160.062 37.4583 160.212 38.05 160.512 38.6C160.812 39.1333 161.229 39.5583 161.762 39.875C162.296 40.175 162.904 40.325 163.587 40.325C164.037 40.325 164.446 40.2583 164.812 40.125C165.196 39.9917 165.537 39.8083 165.837 39.575L167.037 41.05ZM172.939 42.2C172.205 42.2 171.489 42.075 170.789 41.825C170.105 41.5583 169.539 41.1667 169.089 40.65L170.064 39.3C170.497 39.7167 170.939 40.0333 171.389 40.25C171.855 40.45 172.314 40.55 172.764 40.55C173.097 40.55 173.405 40.5083 173.689 40.425C173.972 40.3417 174.197 40.2083 174.364 40.025C174.547 39.825 174.639 39.5583 174.639 39.225C174.639 38.8583 174.514 38.5667 174.264 38.35C174.03 38.1333 173.722 37.9583 173.339 37.825C172.972 37.6917 172.58 37.5667 172.164 37.45C171.314 37.1667 170.664 36.775 170.214 36.275C169.764 35.775 169.539 35.1667 169.539 34.45C169.539 33.9 169.672 33.3917 169.939 32.925C170.222 32.4417 170.63 32.05 171.164 31.75C171.714 31.45 172.389 31.3 173.189 31.3C173.905 31.3 174.547 31.3917 175.114 31.575C175.68 31.7417 176.214 32.025 176.714 32.425L175.789 33.875C175.489 33.5583 175.13 33.325 174.714 33.175C174.297 33.025 173.922 32.9417 173.589 32.925C173.305 32.9083 173.03 32.95 172.764 33.05C172.514 33.15 172.305 33.2917 172.139 33.475C171.972 33.6583 171.889 33.875 171.889 34.125C171.889 34.475 172.005 34.7583 172.239 34.975C172.472 35.1917 172.772 35.3667 173.139 35.5C173.522 35.6167 173.897 35.7417 174.264 35.875C174.78 36.025 175.239 36.225 175.639 36.475C176.039 36.725 176.355 37.0333 176.589 37.4C176.839 37.7667 176.964 38.225 176.964 38.775C176.964 39.3917 176.814 39.9667 176.514 40.5C176.23 41.0167 175.789 41.4333 175.189 41.75C174.605 42.05 173.855 42.2 172.939 42.2Z" fill="#040000"/>
<defs>
<clipPath id="clip0_42_374">
<rect width="40" height="40" fill="white" transform="translate(9 14)"/>
</clipPath>
</defs>
</svg>
