<svg width="200" height="200" viewBox="0 0 200 200" fill="none" xmlns="http://www.w3.org/2000/svg">
<rect width="200" height="200" rx="35" fill="#EDE5CE"/>
<g clip-path="url(#clip0_42_375)">
<path d="M112.167 83.6667H53.8333" stroke="black" stroke-width="6.25" stroke-linecap="round" stroke-linejoin="round"/>
<path d="M53.8333 67H112.167" stroke="black" stroke-width="6.25" stroke-linecap="round" stroke-linejoin="round"/>
<path d="M91.3333 100.333H53.8333" stroke="black" stroke-width="6.25" stroke-linecap="round" stroke-linejoin="round"/>
<path d="M53.8333 117H78.8333" stroke="black" stroke-width="6.25" stroke-linecap="round" stroke-linejoin="round"/>
<path d="M108 104.5V129.5" stroke="#E38484" stroke-width="3.25" stroke-linecap="round" stroke-linejoin="round"/>
</g>
<path d="M160.037 41.688C159.998 41.5969 159.986 41.4961 160.005 41.3986C160.024 41.3011 160.071 41.2114 160.141 41.1412C160.211 41.071 160.301 41.0235 160.399 41.005C160.496 40.9864 160.597 40.9976 160.688 41.037L176.688 47.537C176.785 47.5767 176.868 47.6459 176.923 47.735C176.979 47.8241 177.005 47.9284 176.998 48.0333C176.991 48.1381 176.951 48.238 176.884 48.319C176.817 48.3999 176.727 48.4576 176.625 48.484L170.501 50.064C170.155 50.153 169.839 50.333 169.586 50.5853C169.333 50.8377 169.153 51.1532 169.063 51.499L167.484 57.625C167.458 57.7267 167.4 57.8175 167.319 57.8845C167.238 57.9515 167.138 57.9913 167.033 57.9983C166.928 58.0052 166.824 57.979 166.735 57.9233C166.646 57.8676 166.577 57.7853 166.537 57.688L160.037 41.688Z" stroke="#0500FF" stroke-width="2" stroke-linecap="round" stroke-linejoin="round"/>
<path d="M121.041 142.692C121.001 142.601 120.99 142.5 121.009 142.402C121.027 142.305 121.075 142.215 121.145 142.145C121.215 142.075 121.305 142.027 121.402 142.009C121.5 141.99 121.601 142.001 121.692 142.041L137.692 148.541C137.789 148.58 137.871 148.65 137.927 148.739C137.983 148.828 138.009 148.932 138.002 149.037C137.995 149.142 137.955 149.242 137.888 149.323C137.821 149.404 137.73 149.461 137.629 149.488L131.505 151.068C131.159 151.157 130.843 151.337 130.59 151.589C130.337 151.841 130.156 152.157 130.067 152.503L128.488 158.629C128.461 158.73 128.404 158.821 128.323 158.888C128.242 158.955 128.142 158.995 128.037 159.002C127.932 159.009 127.828 158.983 127.739 158.927C127.65 158.871 127.58 158.789 127.541 158.692L121.041 142.692Z" stroke="#FF5C00" stroke-width="2" stroke-linecap="round" stroke-linejoin="round"/>
<defs>
<clipPath id="clip0_42_375">
<rect width="100" height="100" fill="white" transform="translate(33 42)"/>
</clipPath>
</defs>
</svg>
